<?xml version="1.0" encoding="utf-8"?>
<!-- Generator: Adobe Illustrator 18.0.0, SVG Export Plug-In . SVG Version: 6.00 Build 0)  -->
<!DOCTYPE svg PUBLIC "-//W3C//DTD SVG 1.1//EN" "http://www.w3.org/Graphics/SVG/1.1/DTD/svg11.dtd">
<svg version="1.1" id="图层_1" xmlns="http://www.w3.org/2000/svg" xmlns:xlink="http://www.w3.org/1999/xlink" x="0px" y="0px"
	 viewBox="0 0 363.2 322.4" enable-background="new 0 0 363.2 322.4" xml:space="preserve">
<path fill="none" stroke="#000000" stroke-width="7.0043" stroke-miterlimit="10" d="M317.4,123.1"/>
<path fill="none" stroke="#000000" stroke-width="10.909" stroke-linecap="round" stroke-miterlimit="10" d="M50.4,130.4
	c0-61.2,58.7-110.8,131.2-110.8s131.2,49.6,131.2,110.8"/>
<path fill="none" stroke="#000000" stroke-width="10.4013" stroke-miterlimit="10" d="M91.7,54.2c8,17.3,3.6,50,3.6,50
	s-11.2,27.4-26.9,34.7c-12.9,6,24.2-13.2-30.2,19.2c-6.3,3.7-11.7-1.7-11.3-32.6c0.4-29.8,1.7-32.5,11.2-51.3
	c9.3-18.4,43.5-22.5,50.8-23.1c0.8-0.1,1.6,0.4,1.9,1.2L91.7,54.2z"/>
<path fill="none" stroke="#000000" stroke-width="10.926" stroke-miterlimit="10" d="M82.6,47.8"/>
<path fill="none" stroke="#000000" stroke-width="10.926" stroke-miterlimit="10" d="M79.9,48.5"/>
<path fill="none" stroke="#000000" stroke-width="5.1801" stroke-linecap="round" stroke-miterlimit="10" d="M66.7,76.5
	C52,85.3,46.2,87.6,46.2,87.6"/>
<line fill="none" stroke="#000000" stroke-width="5.1801" stroke-linecap="round" stroke-miterlimit="10" x1="71.1" y1="72.1" x2="84.3" y2="105.6"/>
<line fill="none" stroke="#000000" stroke-width="5.18" stroke-linecap="round" stroke-miterlimit="10" x1="56.8" y1="103.4" x2="68.1" y2="125.7"/>
<line fill="none" stroke="#000000" stroke-width="5.5793" stroke-linecap="round" stroke-miterlimit="10" x1="53.6" y1="105.2" x2="37.8" y2="112.1"/>
<path fill="none" stroke="#000000" stroke-width="7.0043" stroke-miterlimit="10" d="M42.3,204.2"/>
<path fill="none" stroke="#000000" stroke-width="10.909" stroke-linecap="round" stroke-miterlimit="10" d="M309.4,198.4
	C309,259.6,250,308.9,177.6,308.5S46.7,258.1,47.1,196.9"/>
<path fill="none" stroke="#000000" stroke-width="10.4013" stroke-miterlimit="10" d="M267.9,274.6c-8-17.3-3.5-50-3.5-50
	s11.2-27.4,26.9-34.7c12.9-6-25.2,12.2,29.2-20.1c6.3-3.7,12.7,2.7,12.3,33.6c-0.4,29.8-1.7,32.5-11.2,51.3
	c-9.4,18.4-43.6,22.4-50.8,23.1c-0.8,0.1-1.6-0.4-1.9-1.2L267.9,274.6z"/>
<path fill="none" stroke="#000000" stroke-width="10.926" stroke-miterlimit="10" d="M276.7,280.8"/>
<path fill="none" stroke="#000000" stroke-width="10.926" stroke-miterlimit="10" d="M279.5,280.2"/>
<path fill="none" stroke="#000000" stroke-width="5.1801" stroke-linecap="round" stroke-miterlimit="10" d="M292.8,252.3
	c14.8-8.7,20.6-11,20.6-11"/>
<line fill="none" stroke="#000000" stroke-width="5.1801" stroke-linecap="round" stroke-miterlimit="10" x1="288.4" y1="256.6" x2="275.4" y2="223.1"/>
<line fill="none" stroke="#000000" stroke-width="5.18" stroke-linecap="round" stroke-miterlimit="10" x1="302.8" y1="225.4" x2="291.7" y2="203"/>
<line fill="none" stroke="#000000" stroke-width="5.5793" stroke-linecap="round" stroke-miterlimit="10" x1="306.1" y1="223.6" x2="321.9" y2="216.8"/>
<g>
	<text transform="matrix(0.7299 0 0 1 101.5668 140.1941)" font-family="'CooperBlackStd'" font-size="33.6985">UPCYCLING</text>
</g>
<g>
	<text transform="matrix(0.7299 0 0 1 125.3012 220.3738)" font-family="'CooperBlackStd'" font-size="33.6985">BERGEN</text>
</g>
<text transform="matrix(0.7299 0 0 1 164.3618 182.0642)" font-family="'CooperBlackStd'" font-size="33.6985">IN</text>
</svg>
